<svg width="16" height="17" viewBox="0 0 16 17" fill="none" xmlns="http://www.w3.org/2000/svg">
<g clip-path="url(#clip0_2_1250)">
<path d="M13.8264 7.26899C13.8264 11.8687 7.91249 15.8114 7.91249 15.8114C7.91249 15.8114 1.99854 11.8687 1.99854 7.26899C1.99854 5.70051 2.62161 4.19628 3.73069 3.0872C4.83977 1.97812 6.34401 1.35504 7.91249 1.35504C9.48096 1.35504 10.9852 1.97812 12.0943 3.0872C13.2034 4.19628 13.8264 5.70051 13.8264 7.26899Z" stroke="black" stroke-width="1.64276" stroke-linecap="round" stroke-linejoin="round"/>
<path d="M7.91249 9.24031C9.00121 9.24031 9.8838 8.35772 9.8838 7.26899C9.8838 6.18026 9.00121 5.29768 7.91249 5.29768C6.82376 5.29768 5.94117 6.18026 5.94117 7.26899C5.94117 8.35772 6.82376 9.24031 7.91249 9.24031Z" stroke="black" stroke-width="1.64276" stroke-linecap="round" stroke-linejoin="round"/>
</g>
<defs>
<clipPath id="clip0_2_1250">
<rect width="15.7705" height="15.7705" fill="white" transform="translate(0.0273438 0.697937)"/>
</clipPath>
</defs>
</svg>
